<svg xmlns="http://www.w3.org/2000/svg" viewBox="0 0 24 24" fill="none">
  <style>
    .stroke { stroke: #0f172a; }
    .fill { fill: #0f172a; }
    @media (prefers-color-scheme: dark) {
      .stroke { stroke: #ffffff; }
      .fill { fill: #ffffff; }
    }
  </style>
  <path class="stroke" stroke-width="2.5" stroke-linecap="round" stroke-linejoin="round" d="M21 16V8a2 2 0 0 0-1-1.73l-7-4a2 2 0 0 0-2 0l-7 4A2 2 0 0 0 3 8v8a2 2 0 0 0 1 1.73l7 4a2 2 0 0 0 2 0l7-4A2 2 0 0 0 21 16z"></path>
  <g transform="translate(6, 6) scale(0.5)">
    <polygon class="fill stroke" stroke-width="2" stroke-linejoin="round" points="13 2 3 14 12 14 11 22 21 10 12 10 13 2"></polygon>
  </g>
</svg>
